<svg xmlns="http://www.w3.org/2000/svg" width="377.953" height="377.953" viewBox="0 0 100 100" xmlns:v="https://vecta.io/nano"><defs><linearGradient id="A" x1="10" x2="10" y1="8.267" y2="91.734" gradientUnits="userSpaceOnUse"><stop offset="0%" stop-color="#ea5e20"/><stop offset="100%" stop-color="#fcc300"/></linearGradient></defs><path d="M36.111 88.556c17.137 6.89 35.184 2.358 47.387-11.496l-2.005-.647c-20.982 15.183-40.33 3.578-40.33 3.578-15.234-7.8-23.518-24.374-17.145-40.213 6.368-15.835 23.507-23.357 40.025-16.717 0 0 24.12 8.74 13.946 36.552 0 0-7.084 17.301-24.894 16.222l.221 1.868c12.66 1.582 23.817-3.458 31.014-13.923 12.582-18.293 3.064-44.543-17.14-52.508-21.196-8.52-45.559 1.662-54.183 23.107-8.456 21.024 1.45 45.471 23.104 54.177" fill="url(#A)"/></svg>