<svg xmlns="http://www.w3.org/2000/svg" width="377.953" height="377.953" viewBox="0 0 100 100" xmlns:v="https://vecta.io/nano"><defs><clipPath id="A"><path d="M0 0h625v720H0z"/></clipPath></defs><g fill-rule="evenodd" clip-path="url(#A)" transform="matrix(.12815 0 0 .12815 10 7.822)"><path fill="#b48c1c" d="M323.682 77.957l.897.292c2.758.94 5.243 2.28 7.674 3.875l.513.335c5.688 3.758 10.963 8.71 14.911 14.277q.569.795 1.151 1.581c3.455 4.695 6.405 9.687 9.169 14.815 1.971-.374 3.921-.828 5.873-1.29q1.808-.427 3.618-.845l.467-.11q.68-.16 1.361-.314l.802-.185c.654-.097 1.027-.086 1.641.134l-.008.799-.006 1.07-.007.523c-.005 1.351.103 2.673.259 4.015l-.594.137-10.321 2.473.323.804q.64 1.597 1.277 3.195.454 1.134.914 2.265c3.392 8.427 5.927 17.081 8.074 25.901l.126.514q.174.714.343 1.429l.196.818a4.57 4.57 0 0 1 .136 1.376l.531.071c2.249.321 4.439.808 6.647 1.338l.585.14c12.54 3.004 25.494 6.419 37.082 12.213a235 235 0 0 0 1.187-6.169l.086-.482c1.261-7.09 1.894-14.476.388-21.584l-.1-.498c-1.492-7.242-5.097-14.169-11.261-18.482-3.15-2.029-6.414-3.629-9.994-4.747-.231-.899-.193-1.475 0-2.373.064-.736.098-1.472.134-2.21l.031-.601.073-1.46c1.69.092 3.129.416 4.701 1.038l.644.252c8.866 3.563 16.024 9.994 19.861 18.84 5.236 12.81 4.467 28.468.419 41.56l.561.158c1.156.424 2.203.999 3.28 1.592l.701.385c4.255 2.362 8.269 5.117 12.305 7.831-.195.985-.574 1.313-1.35 1.957a14.7 14.7 0 0 0-2.684 3.025c-.916-.133-1.507-.387-2.267-.912l-.614-.418-.648-.449-1.356-.918-.668-.451c-3.007-2.006-6.216-3.683-9.395-5.394l-.081.399a26 26 0 0 1-1.058 3.676l-.196.541q-.317.867-.638 1.731l-.221.602c-1.397 3.778-2.978 7.437-4.687 11.084l-.531 1.161c-1.151 2.511-2.425 4.953-3.74 7.381l-.388.717a242 242 0 0 1-9.183 15.451q-.307.48-.604.965c-.24.384-.502.752-.768 1.119-.243.846-.174.975.202 1.735q.351.606.716 1.204.405.702.806 1.406l.447.775c.863 1.518 1.657 3.073 2.454 4.626l.26.505c3.058 5.957 5.749 12.034 8.243 18.247q.288.717.58 1.434l.381.942.338.835c1.261 3.289 1.261 3.289 1.261 4.374 3.563-1.522 7.047-3.114 10.44-4.983l.922-.498c3.952-2.156 7.914-4.495 11.417-7.332l.639-.512q.992-.804 1.971-1.624l.379-.313c7.13-5.892 13.654-14.131 14.569-23.651.306-4.602-.34-8.963-2.172-13.209-.201-.552-.201-.552-.201-1.501.453-.346.453-.346 1.068-.668 1.252-.7 2.777-1.564 3.44-2.892h.95c4.167 8.365 4.944 17.504 2.051 26.393-1.955 5.757-5.377 10.788-9.521 15.199-.493.53-.963 1.068-1.428 1.621-1.776 2.042-3.935 3.753-6.051 5.428l-.443.351a81 81 0 0 1-7.624 5.343l-.427.266q-1.29.8-2.601 1.56-.57.332-1.138.668a101 101 0 0 1-9.551 4.936l-.525.237c-3.096 1.398-3.096 1.398-4.028 1.587l.209.709a114 114 0 0 1 1.734 6.839l.179.796c.551 2.505 1.05 4.98.962 7.553l-.786-.119c-1.886-.234-3.744-.164-5.62.119a109 109 0 0 1-.739-3.483c-.502-2.601-1.034-5.176-1.747-7.728-.198-.715-.361-1.33-.361-2.076l-.736.28-3.772 1.381-.729.261c-8.216 2.919-16.668 5.026-25.194 6.812l-.909.191q-1.274.265-2.55.526l-.772.159-.71.143-.618.125c-.551.087-.551.087-1.5.087l-.141.694a314 314 0 0 1-.64 3.033q-.173.805-.342 1.611c-2.649 12.561-6.313 25.27-11.643 36.969-.441.992-.84 2-1.233 3.012l.455.08a23.96 23.96 0 0 1 3.267.824c11.897 3.718 25.737 4.768 37.045-1.127 6.065-3.432 10.239-8.926 12.156-15.611l.227-.538c.817-.272 1.154-.186 1.987-.015 1.562.285 3.073.298 4.656.252.216 5.177-4.024 11.561-7.376 15.258q-.381.376-.778.737c-.434.406-.434.406-.919 1.046-.698.848-1.51 1.483-2.39 2.134l-.503.372c-4.073 2.96-8.549 4.888-13.422 6.078l-.858.214c-12.089 2.806-25.074.016-36.632-3.773l-.156.555c-.433 1.183-1.017 2.265-1.608 3.375l-.353.671a56 56 0 0 1-1.679 2.992c-.933-.123-1.383-.332-2.046-.994-1.094-1.013-2.323-1.662-3.648-2.328.141-.931.427-1.623.883-2.444l.387-.702.405-.724.409-.738q.498-.9 1-1.798a57 57 0 0 0-4.137-1.898c-8.091-3.431-15.958-7.539-23.369-12.263q-.808-.512-1.62-1.018c-2.195-1.373-4.355-2.777-6.465-4.277a61 61 0 0 0-4.479 2.758c-2.081 1.408-4.241 2.674-6.414 3.934q-.743.432-1.483.865c-9.03 5.291-18.376 9.849-28.143 13.606-1.533.59-3.051 1.21-4.563 1.852 3.92 7.743 8.761 15.2 15.082 21.213.341.378.341.378.341.853l.408.177c.631.347 1.073.764 1.594 1.262 5.639 5.153 13.912 9.327 21.707 9.051l.73-.05.87-.05c4.45-.343 8.796-1.768 12.654-3.984l.455-.254c2.33-1.306 4.591-2.777 6.56-4.596.927-.842.927-.842 1.57-.853.528.301.803.624 1.173 1.106.943 1.138 2.058 1.904 3.293 2.699-.074.743-.165 1.109-.682 1.661l-2.166 1.661-.48.364c-4.915 3.712-10.329 6.753-16.366 8.178l-.475.116c-4.755 1.123-10.218 1.107-14.948-.116l-.58-.143c-6.05-1.511-11.575-4.25-16.267-8.399q-.37-.308-.743-.614c-3.283-2.714-6.403-5.719-8.985-9.114l-.728-.93c-1.566-2.006-3.049-4.049-4.425-6.19q-.485-.75-.975-1.497c-1.827-2.815-3.433-5.731-4.996-8.7-.228-.463-.228-.463-.502-.716a26.01 26.01 0 0 0-1.435.341l-.89.229-1.404.369-1.354.351-.82.215a7.2 7.2 0 0 1-1.927.156l-.036-.738c-.1-1.923-.265-3.782-.676-5.668 4.067-1.424 4.067-1.424 5.694-1.424l-.176-.409c-6.69-15.618-11.309-32.131-14.016-48.898l-.089-.55c-.134-.867-.225-1.702-.192-2.579l-.643-.124c-12.353-2.513-24.881-7.023-36.135-12.689-.921 2.121-1.716 4.274-2.447 6.466l-.17.509c-1.598 4.814-2.814 9.707-3.76 14.691l-.137.723c-.684 3.823-.933 7.632-.916 11.511l.002.627c.011 3.091.112 6.103.784 9.131l.12.564c1.094 5.027 3.152 9.755 6.524 13.672l.537.625c1.506 1.713 3.069 3.127 5.009 4.328l.494.306c4.368 2.649 8.898 4.014 13.891 4.944l.237 6.88c-8.014-.826-17.157-3.904-22.793-9.957a14 14 0 0 0-1.409-1.268c-6.677-5.796-9.517-16.31-10.157-24.734-.814-14.602 2.452-28.883 8.022-42.34l-.463-.165c-.975-.417-1.881-.925-2.8-1.451l-.56-.306c-1.319-.758-1.319-.758-1.683-1.534.063-.742.281-1.003.775-1.556.979-1.165 1.669-2.416 2.358-3.767a5.2 5.2 0 0 1 1.796.72l.467.286.481.299c1.188.752 1.188.752 2.476 1.305l.078-.503c.18-.771.465-1.401.809-2.112l.408-.844.44-.9.226-.464c2.277-4.673 4.702-9.23 7.356-13.7q.6-1.014 1.191-2.031c2.627-4.5 5.43-8.866 8.385-13.157l.402-.591q.405-.585.836-1.151l.408-.555.372-.485c.271-.539.271-.539.052-1.212a19 19 0 0 0-1.061-2.071l-.445-.763-.475-.805-.976-1.676-.243-.417a215 215 0 0 1-2.758-4.908q-.466-.841-.938-1.679c-3.059-5.473-5.715-11.132-8.165-16.901l-.254-.598a175 175 0 0 1-2.627-6.508c-.25-.669-.411-1.173-.411-1.895-6.356 3.079-12.333 6.651-17.795 11.152l-.762.615c-2.957 2.417-5.711 5.116-8.017 8.164l-.573.74c-4.302 5.693-6.734 12.265-6.309 19.428l.052.898c.489 5.049 2.743 10.173 5.74 14.225.589.805.997 1.409 1.09 2.435l-.505.288c-1.627.975-2.828 2.022-4.004 3.508-.729-.316-1.128-.617-1.589-1.261l-.347-.484-.362-.524-.38-.547c-5.002-7.338-7.689-16.282-6.293-25.161 1.333-7.014 4.254-12.997 8.734-18.528l.464-.611c2.498-3.217 5.545-6.184 8.79-8.642l.928-.728c4.617-3.603 9.572-6.645 14.712-9.443q.717-.39 1.431-.787l.843-.461.734-.402c.571-.28.571-.28 1.045-.28l-.271-.776c-.91-2.639-1.639-5.288-2.279-8.003l-.277-1.15c-1.238-5.149-1.238-5.149-1.206-6.68l6.406-.712c.346.985.609 1.959.826 2.98l.197.908.103.476a98 98 0 0 0 2.671 9.872l.476-.184q2.425-.936 4.854-1.866 1.114-.428 2.224-.864c8.733-3.384 17.835-5.778 26.939-7.926l.526-.124q.726-.171 1.452-.338l.826-.191c.667-.133.667-.133 1.378-.133l.077-.467c1.919-11.149 6.368-22.507 11.075-32.751l.423-.928c1.668-3.664 3.334-7.299 5.509-10.698-.566-.377-.98-.602-1.6-.834l-.535-.2c-13.522-4.938-28.862-7.826-42.588-2.185-5.987 2.799-10.648 7.973-12.967 14.138-.51 1.451-.983 2.914-1.434 4.385a25 25 0 0 1-.669 1.78c-1.979-.207-1.979-.207-2.818-.371-.933-.131-1.843-.11-2.784-.089-.567-.015-.567-.015-1.042-.252 2.434-9.882 6.956-18.794 15.899-24.255 6.586-3.873 14.127-5.278 21.695-5.241l.558.001c9.402.037 18.408 2.239 27.257 5.26l.543.185 1.005.346c1.081.369 2.165.661 3.277.926l.315-.481a171 171 0 0 1 3.493-5.068l.358-.504.321-.45c.274-.383.274-.383.495-.853.786.073 1.128.182 1.711.73l.514.62c.652.769 1.27 1.427 2.076 2.031l.682.653c-.025 1.21-.49 1.877-1.231 2.803a48 48 0 0 0-2.565 3.603l.815.238c3.258 1.097 6.276 2.849 9.273 4.506a123.65 123.65 0 0 0 3.03 1.613c6.894 3.563 13.376 7.955 19.744 12.373l.696.481a100 100 0 0 1 3.288 2.376l.589.443q.545.411 1.082.835c.439.331.849.624 1.345.862.616-.057.616-.057 1.186-.474q.475-.244.952-.482l1.11-.586.604-.319q1.972-1.048 3.919-2.143c7.675-4.287 15.612-7.743 23.77-10.986q.987-.392 1.972-.787l.538-.216.354-.141c-1.511-2.834-3.083-5.596-4.874-8.263q-.357-.532-.711-1.068a83 83 0 0 0-5.804-7.752l-.382-.456c-2.144-2.56-4.341-4.83-6.974-6.9l-.675-.535c-6.953-5.373-14.884-8.18-23.71-7.183-1.948.275-3.771.84-5.602 1.553-1.709.66-1.709.66-2.52.47-.42-.556-.42-.556-.8-1.304-.631-1.18-1.288-2.098-2.24-3.033-.281-.408-.281-.408-.257-.872.213-.485.213-.485.737-.795l.7-.268.785-.301.853-.307.878-.318c7.565-2.63 15.374-2.446 22.924.021M273.29 113.37c-5.316 10.22-9.788 20.448-13.391 31.4l-.439 1.329c-.908 2.748-1.696 5.488-2.304 8.318 2.007-.233 4.003-.499 5.997-.825q1.264-.205 2.53-.405l.691-.111c3.19-.503 6.371-.87 9.589-1.119q.873-.068 1.746-.139l1.169-.095.585-.048q1.444-.117 2.891-.206c5.919-.34 5.919-.34 10.749-3.578.473-.472.994-.85 1.542-1.23l.481-.347.468-.335.536-.383q.54-.388 1.083-.775.73-.521 1.457-1.045c2.1-1.503 4.237-2.948 6.385-4.381l.411-.273c1.6-1.067 3.208-2.113 4.852-3.112l.462-.337v-.474c-.386-.329-.386-.329-.895-.655l-.58-.391-.616-.408a96 96 0 0 1-3.645-2.53c-1.643-1.203-3.342-2.317-5.045-3.431l-.507-.332c-2.684-1.757-5.392-3.459-8.169-5.066l-.592-.347c-4.28-2.502-8.662-4.789-13.118-6.959l-.928-.454-1.3-.63-.757-.367c-.622-.305-.622-.305-1.338-.259m52.576 20.966a44 44 0 0 1-2.985 1.574c.315.946.936 1.308 1.705 1.884a84 84 0 0 1 3.98 3.256 79 79 0 0 0 2.486 2.067c1.418 1.15 2.733 2.401 4.061 3.652.746.703 1.504 1.39 2.288 2.051.428.378.428.378.916.881.942.941 1.632 1.483 2.972 1.667l.761.108.762.094.676.085q1.017.117 2.036.223l1.553.168.811.087c4.642.502 9.259 1.078 13.865 1.85l1.915.326c.768.131.768.131 1.685.108-.335-2.831-1.185-5.543-1.972-8.274l-.223-.776c-2.322-8.07-5.005-16.04-8.482-23.693-8.794 0-21.382 8.317-28.81 12.662m-10.474 6.07l-.506.309-.547.341-.575.356c-1.931 1.206-3.808 2.487-5.676 3.788q-1.055.733-2.111 1.462l-1.5 1.038-.723.5-.672.466-.598.415c-.503.349-.503.349-.958.828l.704.008q3.344.035 6.686.073l3.435.037 16.936.357c-1.828-1.836-3.766-3.519-5.782-5.144q-.903-.731-1.803-1.466-.735-.598-1.472-1.194-.832-.673-1.654-1.357l-.634-.523-.538-.449c-.784-.529-1.273-.297-2.012.155m-19.693 16.273q-.495.023-.989.038c-2.597.088-4.198.735-5.994 2.61l-.37.412c-.473.512-1.005.919-1.561 1.337-1.378 1.099-2.709 2.255-4.044 3.407q-.65.559-1.302 1.115a185 185 0 0 0-4.298 3.765q-.734.66-1.478 1.307a246 246 0 0 0-3.322 2.966l-.675.608a103 103 0 0 0-4.168 4.003 42 42 0 0 1-2.569 2.38 27.5 27.5 0 0 0-2.834 2.901c-1.085 1.246-2.263 2.391-3.441 3.548-.971.961-1.9 1.94-2.786 2.981-.384.438-.788.848-1.204 1.256a28 28 0 0 0-1.973 2.161c-.518.568-.518.568-1.207 1.122-1.585 1.333-2.31 2.555-2.563 4.626a86 86 0 0 0-.218 4.192l-.093 1.83a323 323 0 0 0-.164 3.686 210 210 0 0 1-.227 4.483c-.139 2.38-.224 4.76-.293 7.143q-.042 1.278-.092 2.554a231 231 0 0 0-.123 4.329q-.022 1.183-.069 2.366c-.218 4.302-.218 4.302 1.742 7.978.396.416.801.814 1.221 1.205.6.585 1.072 1.239 1.568 1.914 2.161 2.829 4.436 5.56 6.765 8.251q.538.625 1.072 1.255a150 150 0 0 0 4.157 4.692q.718.78 1.412 1.581c.798.92 1.621 1.817 2.447 2.713q1.041 1.133 2.061 2.284c.966 1.079 1.984 2.098 3.02 3.109.503.514.974 1.031 1.443 1.575.915 1.055 1.888 2.043 2.878 3.027l.512.515a46 46 0 0 0 2.923 2.694c.495.454.495.454 1.011 1.065 1.356 1.566 2.464 2.095 4.511 2.272l1.053.068 1.129.098a179.14 179.14 0 0 0 3.943.273l.779.049 12.508.663 1.148.053q3.103.139 6.208.184l.529.008c7.425.105 14.832-.137 22.249-.482l.674-.032q1.77-.082 3.54-.178l1.018-.053q.687-.037 1.374-.078l.759-.044c1.523-.195 2.441-.738 3.52-1.795l.822-.783.432-.416q.643-.614 1.297-1.214c2.188-2.017 4.299-4.106 6.388-6.224l.644-.649.57-.579c.555-.532 1.137-1.004 1.74-1.48q.384-.411.742-.845a37 37 0 0 1 2.224-2.358 44 44 0 0 0 2.584-2.769c.388-.441.794-.853 1.213-1.264.7-.69 1.347-1.407 1.977-2.161.415-.458.831-.863 1.288-1.277l.419-.4q.408-.39.837-.753c1.424-1.393 1.368-3.292 1.491-5.167q.055-.791.131-1.581.145-1.573.263-3.15l.045-.589c.292-3.888.455-7.779.593-11.675l.03-.844a266 266 0 0 0 .058-17.434l-.37-9.156-.03-.578a290 290 0 0 0-.207-3.485l-.033-.676c-.086-1.251-.414-1.94-1.213-2.898l-.316-.388a88 88 0 0 0-.685-.825l-1.501-1.835q-.587-.724-1.179-1.447c-.72-.884-1.42-1.782-2.117-2.683a54 54 0 0 0-3.066-3.57 43 43 0 0 1-1.621-1.916c-.982-1.217-2.024-2.364-3.086-3.51a68 68 0 0 1-1.437-1.607c-1.005-1.158-2.046-2.283-3.085-3.41l-1.081-1.179c-1.214-1.325-2.436-2.632-3.728-3.883a30 30 0 0 1-1.281-1.413c-1-1.15-2.069-2.224-3.148-3.298l-.581-.583c-1.012-1.011-2.034-1.99-3.137-2.902-.449-.415-.449-.415-.816-.923-.726-.955-1.374-1.41-2.556-1.603-1.301-.151-2.606-.198-3.914-.247q-.66-.034-1.32-.071a222 222 0 0 0-3.463-.152q-1.063-.043-2.127-.095c-4.656-.211-9.312-.216-13.972-.215q-1.374 0-2.746-.005c-4.363-.015-8.731-.029-13.089.175m-17.757 1.375l-.625.07-.678.082-.715.083q-1.161.138-2.322.281l-.799.096c-3.732.454-7.448.977-11.154 1.609l-.614.103q-.862.148-1.723.3l-.497.085q-.714.134-1.422.298l-.572.114c-.579.146-1.049.294-1.563.598-.35.722-.492 1.166-.618 1.932l-.121.594-.359 1.937q-.13.674-.263 1.346a291 291 0 0 0-.65 3.473 334 334 0 0 1-.493 2.614c-1.289 5.874-1.289 5.874-1.767 11.831.867-.708 1.665-1.4 2.384-2.258 1.129-1.306 2.355-2.516 3.576-3.734l.761-.762q.794-.795 1.589-1.587l2.02-2.022 1.57-1.57.745-.745c1.235-1.236 2.475-2.457 3.805-3.592.648-.555 1.269-1.137 1.894-1.718l.803-.744 1.47-1.36a80 80 0 0 1 3.892-3.343 67 67 0 0 0 2.483-2.186 52 52 0 0 1 1.955-1.665 4.49 4.49 0 0 0-1.992-.16m70.09.634a44 44 0 0 0 2.957 3.21l.429.426q.897.89 1.796 1.778c3.001 2.972 3.001 2.972 4.192 4.375.635.741 1.314 1.441 1.985 2.149a61 61 0 0 1 3.305 3.802 43 43 0 0 0 1.797 2.011c1.078 1.154 2.061 2.364 3.027 3.613 1.228 1.59 1.228 1.59 2.578 3.075h.238c-.118-2.891-.432-5.713-.875-8.571l-.094-.616a229 229 0 0 0-1.463-8.549l-.177-.927c-.274-1.656-.274-1.656-.95-3.166-.492-.204-.492-.204-1.082-.27l-.683-.108-.745-.105-.775-.118q-1.234-.186-2.469-.363-.806-.12-1.61-.243a587 587 0 0 0-5.502-.801q-1.077-.154-2.153-.304l-.644-.092c-1.037-.143-2.033-.24-3.082-.206m26.1 4.271c.133 1.693.337 3.354.626 5.026l.235 1.406.124.741c.904 5.412 1.609 10.831 2.204 16.285l.234 2.103q.13 1.157.232 2.319c.192 1.895.536 3.116 1.758 4.582l.845 1.091.436.548c.667.849 1.294 1.725 1.922 2.602l.378.523c2.455 3.405 4.862 6.833 7.053 10.414l2.075 3.284.428.674a145 145 0 0 0 2.093 3.211c.786-.262.853-.348 1.271-1.013l.323-.509.349-.568.373-.601c6.656-10.811 12.56-22.174 16.859-34.13l.225-.625q.315-.877.625-1.758l.19-.534c.246-.704.428-1.269.428-2.021-4.296-1.915-8.594-3.706-13.05-5.22l-.97-.333c-6.8-2.33-13.639-4.363-20.622-6.073l-.715-.176q-1.014-.247-2.029-.492l-.611-.148a30 30 0 0 0-3.289-.608m-127.463.231l-.63.155-.692.172-.724.18c-8.3 2.073-16.516 4.344-24.497 7.448l-.528.205a60 60 0 0 0-6.101 2.761c.528 1.915 1.218 3.748 1.958 5.59l.184.462c4.132 10.275 9.246 20.051 14.942 29.538 1.875-1.832 3.474-3.903 5.06-5.984.87-1.139 1.77-2.249 2.684-3.353l1.154-1.4 1.724-2.095.394-.488c.373-.441.373-.441 1.039-1.086.796-1.193.816-2.397.951-3.804q.111-1 .231-1.999l.065-.55c.299-2.497.699-4.978 1.097-7.461l.121-.754a424 424 0 0 1 2.375-13.288l.135-.7q.124-.645.251-1.29l.111-.576.098-.498c.091-.545.091-.545.068-1.416-.529 0-.955.104-1.47.231m132.209 42.478a5949 5949 0 0 1 .035 12.104c.028 6.537-.077 13.047-.438 19.575a56 56 0 0 0-.072 3.437c2.023-1.985 3.669-4.247 5.334-6.53a142 142 0 0 1 3.06-4.014 56 56 0 0 0 3.102-4.314c.368-.565.368-.565.803-1.041l.277-.473c-.271-.834-.669-1.557-1.123-2.304l-.394-.65-.426-.694-.445-.728c-2.452-3.984-5.043-7.875-7.704-11.722-.507-.743-.997-1.497-1.487-2.251l-.285-.395zm-136.908.237q-.507.63-.993 1.275l-.647.849-.355.467-1.636 2.106a150 150 0 0 0-3.962 5.268 267 267 0 0 0 3.775 5.809q.483.726.963 1.454l.62.931.287.435c.444.664.877 1.277 1.474 1.811l.014-.775c.123-6.549.361-13.088.697-19.63zm-11.864 16.134c-.32.343-.32.343-.637.801l-.38.524-.406.573-.421.59a86 86 0 0 0-3.297 5.064q-.515.838-1.04 1.668a188 188 0 0 0-5.048 8.578 324 324 0 0 1-1.221 2.156 169 169 0 0 0-4.174 7.762l-.376.75c-1.53 2.737-1.53 2.737-2.219 5.701 4.688 2.399 9.558 4.299 14.474 6.169l.461.177c3.815 1.456 7.69 2.685 11.595 3.872l2.63.794.586.178c1.079.319 2.117.545 3.235.674l-.12-1.287-.119-1.276a240 240 0 0 0-.395-3.876c-.623-5.609-1-11.213-1.275-16.849a590 590 0 0 1-.115-2.394q-.05-1.04-.111-2.079l-.039-.717-.049-.696-.04-.619c-.208-1.099-.899-1.88-1.592-2.728l-.915-1.181-.47-.595a88 88 0 0 1-2.011-2.703l-.379-.522c-1.235-1.72-2.386-3.494-3.528-5.277l-.35-.544q-.375-.582-.745-1.167l-.382-.593-.345-.539-.307-.389zm164.432 8.542a39.66 39.66 0 0 0-1.024 1.29l-.319.417a104 104 0 0 0-2.409 3.335c-2.351 3.359-4.887 6.554-7.51 9.703q-.736.891-1.462 1.79a157 157 0 0 1-2.919 3.451l-.349.404-.309.356-.309.371-.363.431c-.381.567-.467.907-.541 1.58l-.075.636-.072.688-.083.72-.172 1.529a523 523 0 0 1-.458 3.966l-.094.791c-.354 2.953-.838 5.878-1.377 8.803-.105.574-.105.574-.086 1.261 2.409-.323 4.756-.826 7.118-1.394l.582-.139q2.203-.53 4.401-1.077l.641-.158c5.491-1.362 10.9-2.906 16.265-4.706l.75-.248q1.045-.349 2.086-.708l.632-.21.574-.202.501-.172c.423-.214.423-.214.562-.702.076-.67-.098-1.123-.324-1.757l-.275-.777-.31-.844-.32-.884c-1.33-3.623-2.858-7.166-4.41-10.698l-.335-.763c-1.401-3.178-2.934-6.289-4.485-9.395l-.278-.557c-1.033-2.064-2.081-4.116-3.207-6.131zM248.614 247.19c-.084 2.658.167 5.288.4 7.934l.062.718c.407 4.652.988 9.27 1.673 13.889 1.025.454 2.075.701 3.165.938q.292.063.592.13.962.209 1.923.415l.664.142a181 181 0 0 0 10.414 1.922c1.697.267 3.348.522 5.072.486-1.409-1.708-2.984-3.234-4.559-4.787-1.093-1.083-2.158-2.172-3.152-3.346a22 22 0 0 0-1.187-1.239 36 36 0 0 1-2-2.17 74 74 0 0 0-1.515-1.659 69 69 0 0 1-3.418-3.942 50 50 0 0 0-1.861-2.091 49 49 0 0 1-2.686-3.15 96 96 0 0 0-1.897-2.292l-.343-.406a25 25 0 0 0-1.347-1.492m120.773 14.236q-.78.77-1.557 1.542l-.438.432-.438.436-.396.391c-.434.459-.847.927-1.259 1.405-.898 1.032-1.851 2-2.822 2.964l-.536.535q-.836.834-1.675 1.667l-1.143 1.14q-1.392 1.389-2.787 2.775c.718.22 1.253.24 1.994.134l.619-.087.661-.098.682-.097a485 485 0 0 0 2.154-.312l1.462-.209q1.79-.256 3.58-.517c.544-1.145.699-2.33.893-3.569l.111-.694q.116-.724.229-1.447.176-1.111.357-2.222l.222-1.406.11-.673.096-.622.087-.548c.07-.467.07-.467-.206-.92m-117.451 15.423c.836 5.349 1.786 10.637 3.084 15.897l.149.605c1.571 6.385 3.332 12.658 5.546 18.851l.206.577a551 551 0 0 0 1.514 4.198l.202.555c.986 2.706 2.1 5.338 3.298 7.957 2.086-.585 4.103-1.331 6.125-2.106l.535-.205a164 164 0 0 0 24.015-11.549q1.026-.597 2.059-1.187a209 209 0 0 0 9.501-5.833c-.272-.816-.458-.937-1.138-1.424l-.567-.411-.609-.434-1.244-.902-.618-.447c-2.247-1.638-4.42-3.379-6.602-5.103l-.994-.782c-1.585-1.252-3.113-2.567-4.642-3.886q-.64-.55-1.284-1.096a152 152 0 0 1-4.685-4.151 55 55 0 0 0-2.028-1.802c-.503-.442-.503-.442-.984-.957-1.935-1.898-3.953-2.089-6.556-2.382l-3.017-.38-1.572-.204c-2.549-.327-5.082-.737-7.614-1.172q-1.021-.175-2.044-.346a144 144 0 0 1-7.587-1.506l-.657-.148-.581-.133c-.531-.116-.531-.116-1.211-.094m111.949 3.599l-1.234.18-2.006.295c-2.382.351-4.758.686-7.156.902l-1.096.104q-1.012.095-2.026.161c-2.298.216-3.396.91-4.945 2.588q-.617.52-1.246 1.024a124 124 0 0 0-3.025 2.536q-1.755 1.512-3.554 2.974-.825.672-1.642 1.355a138 138 0 0 1-6.432 5.048q-.721.536-1.438 1.077a248 248 0 0 1-6.153 4.494l-1.661 1.186c.828.931 1.788 1.505 2.847 2.135l.566.341q.902.544 1.807 1.083l1.211.729q1.207.725 2.416 1.447.998.596 1.984 1.209c10.613 6.909 10.613 6.909 22.15 10.614 5.605-13.34 10.69-27.42 13.05-41.76-.813 0-1.614.16-2.417.278m-71.85 2.332a64.5 64.5 0 0 0 6.234 5.479c.926.718 1.832 1.46 2.738 2.203 1.806 1.476 3.654 2.894 5.513 4.304q.634.483 1.261.973.926.724 1.863 1.432.466.351.929.706.811.613 1.63 1.216l.517.395.492.357.434.324c.472.227.472.227 1.041.005a13.5 13.5 0 0 0 1.621-.983l.579-.405.611-.435.635-.449a197 197 0 0 0 5.285-3.895q.9-.68 1.806-1.35c2.618-1.965 5.209-3.969 7.731-6.056q.663-.548 1.333-1.086l.723-.584.655-.526c.519-.397.519-.397.739-.913a437 437 0 0 0-11.893.119q-2.951.07-5.902.118l-.663.011c-4.043.055-8.073-.13-12.111-.327l-2.564-.121-2.992-.142q-4.122-.196-8.245-.37"/><path fill="#fff" d="M273.846 0c.348.694.267 1.309.268 2.084l.001.502v2.786q.001 1.197-.001 2.393-.002 1.536.001 3.072v3.489q.001.79-.001 1.581l-.001.91c-.03.701-.03.701-.267 1.174-.515.18-.515.18-1.21.353l-.796.206-.882.226c-17.504 4.63-35.1 12.799-49.511 23.735q-.757.565-1.523 1.117a127 127 0 0 0-7.458 5.849l-.451.379a149 149 0 0 0-5.313 4.702q-.451.412-.908.816a97 97 0 0 0-4.377 4.162q-.558.559-1.118 1.115c-1.161 1.16-2.3 2.328-3.368 3.576-.485.566-.992 1.11-1.498 1.658a69 69 0 0 0-2.749 3.212 107 107 0 0 1-1.353 1.639 126 126 0 0 0-5.881 7.621l-.465.65a146 146 0 0 0-6.408 9.767l-.398.658c-2.334 3.876-4.447 7.847-6.475 11.888l-.336.67c-6.583 13.194-10.999 27.536-13.498 42.045l-.083.48q-.243 1.429-.453 2.864-.087.58-.176 1.159c-.595 3.923-.724 7.782-.712 11.744q0 1.32-.003 2.639-.004 2.312-.001 4.625.003 3.462-.001 6.924-.006 5.903-.004 11.805.002 5.978-.001 11.955l-.001.764-.002 3.856q-.007 13.943-.008 27.884 0 13.804-.006 27.608v.867l-.004 8.711-.008 18.603v.896q-.008 21.097-.012 42.194v4.666l-.001.935-.002 10.294v.938l-.012 43.152v2.802l-.014 41.294-.001 2.685-.006 15.931q-.009 20.316-.012 40.632l-.004 17.419v.8l-.003 7.86-.001 3.833v.759l-.002 11.933q0 5.857-.003 11.713l-.001 6.88q.001 2.279-.001 4.557v2.591l-.002 2.772.002.822-.002.736v.64c-.03.474-.03.474-.267.711-.522.023-1.045.03-1.568.03l-.496.001h-1.631l-1.129.001-2.37-.002q-1.521-.001-3.043.001-1.167.001-2.333 0l-1.122.001-1.566-.002h-.902c-.666-.03-.666-.03-.903-.267a37 37 0 0 1-.029-1.673v-.537l.002-1.794v-1.28q0-1.744.003-3.488l.002-3.641.005-6.899.006-9.319q.004-7.346.011-14.691h-35.548l.008 9.469.003 5.919q.002 4.703.007 9.407.004 3.424.004 6.85l.003 3.629a3878 3878 0 0 1 .003 6.375l.002.508c-.003 1.138-.003 1.138-.267 1.402-.522.023-1.045.03-1.568.03l-.496.001h-1.632L98.39 567q-1.185 0-2.369-.002-1.521-.001-3.044.001h-2.332l-1.122.001-1.567-.002h-.902c-.665-.03-.665-.03-.902-.267a35 35 0 0 1-.03-1.556v-.501q-.001-.841.001-1.683v-1.211q-.001-1.671.001-3.342v-3.599l.003-6.24q.002-4.51.002-9.022l.005-14.636.005-14.221v-5.279q.005-18.24.013-36.479h17.3v36.929H139l-.008-13.403-.005-9.004v-.583l-.006-9.424v-.641q-.02-34-.031-67.999l-.001-1.511-.009-31.725-.005-15.938-.001-2.404q-.005-18.5-.015-36.999l-.001-.802-.008-12.816q-.013-18.467-.018-36.932v-.768q-.003-8.347-.003-16.694l-.001-6.718-.001-.742q-.002-11.824-.013-23.65-.01-11.921-.009-23.842l.001-3.303v-.654q0-5.103-.008-10.207-.008-5.032-.002-10.063.002-2.686-.004-5.373c-.021-7.148.063-14.133 1.333-21.185l.252-1.521c.192-1.16.409-2.312.637-3.465l.118-.612c3.699-19.019 10.534-37.92 20.601-54.521q.489-.816.966-1.64a123 123 0 0 1 4.398-6.996l.344-.512c2.528-3.77 5.145-7.45 7.995-10.984l.37-.46c2.312-2.871 4.654-5.708 7.151-8.421a67 67 0 0 0 1.366-1.55c.829-.954 1.727-1.832 2.626-2.72a40 40 0 0 0 1.844-2.031c1.059-1.205 2.23-2.266 3.445-3.31a36 36 0 0 0 1.565-1.512 48 48 0 0 1 2.962-2.722l.768-.67a170 170 0 0 1 11.015-8.873q.706-.523 1.406-1.053C227.231 15.998 247.341 6.82 273.846 0m79.58 0c1.265.113 2.466.349 3.693.678l.511.135q.827.22 1.652.445l.579.157c4.303 1.17 8.525 2.552 12.731 4.032l.885.31c6.189 2.192 12.158 4.843 18.045 7.741l.994.483c11.539 5.643 22.275 12.81 32.188 20.961q.57.466 1.142.927a79 79 0 0 1 3.883 3.366q.733.67 1.487 1.32c2.644 2.313 5.146 4.77 7.631 7.252l.389.387c1.293 1.29 2.571 2.582 3.759 3.972.523.61 1.072 1.195 1.62 1.783a66 66 0 0 1 2.917 3.402q.718.88 1.462 1.742c2.663 3.104 5.073 6.41 7.443 9.74l.793 1.11c5.184 7.229 9.578 14.944 13.561 22.888l.401.796c7.662 15.285 12.785 31.897 15.527 48.757l.084.514.552 3.69.09.635c.527 3.776.721 7.47.708 11.279l.002 1.746q.003 1.887 0 3.774-.005 2.825-.001 5.649.002 4.817-.001 9.632-.004 4.876-.004 9.751v.624l.001 3.149q.002 11.376-.003 22.752a42274 42274 0 0 0-.006 22.523v7.103l-.001 15.897v.731q-.002 17.593-.009 35.186-.008 24.471-.01 48.942v13.663q-.002 23.694-.007 47.389l-.002 14.794q-.001 14.813-.007 29.626l-.001 2.498v.62l-.002 9.734q0 4.779-.003 9.556l-.001 5.612q.001 2.075-.002 4.151v1.68q.001 1.131-.001 2.262l.001.67c-.004 1.488-.004 1.488-.268 1.752a36 36 0 0 1-1.565.03l-.496.001q-.815.002-1.629 0l-1.127.001-2.366-.002q-1.52-.001-3.039.001h-2.328l-1.121.001q-.782.001-1.564-.002h-.901c-.664-.03-.664-.03-.901-.267a63 63 0 0 1-.029-2.168l-.001-.703q-.001-1.183.001-2.367v-5.449l.001-5.603q-.001-4.774.001-9.548l.001-9.682v-22.839q.002-17.859-.003-35.716l-.001-4.284-.001-1.435v-.719l-.002-9.41-.008-32.046v-2.272q-.004-17.478-.002-34.957v-.758l.002-12.104q.004-17.447-.001-34.893v-.726l-.006-15.07-.003-7.059-.001-.702q-.004-11.17.003-22.339.005-11.265-.003-22.529l-.003-3.124-.001-.618q-.003-4.819.005-9.638.006-4.756-.003-9.511-.006-2.537.001-5.074c.024-7.51-.261-14.769-1.603-22.168l-.104-.578c-1.361-7.523-3.19-14.891-5.575-22.157l-.279-.855c-6.124-18.646-15.927-36.306-28.685-51.228a74 74 0 0 1-1.605-1.97c-1.798-2.212-3.799-4.273-5.821-6.28a23 23 0 0 1-1.544-1.682c-.809-.94-1.707-1.747-2.636-2.565a39 39 0 0 1-1.697-1.639 49 49 0 0 0-2.928-2.693l-.775-.68a151 151 0 0 0-11.057-8.793l-.464-.338c-6.876-5-14.193-9.33-21.778-13.16l-.788-.398c-9.597-4.817-19.624-8.387-29.973-11.206-.273-.869-.267-1.688-.268-2.595l-.001-.496q-.001-.81.001-1.619l-.001-1.125.001-2.354q.002-1.513-.001-3.025V3.347q-.001-.778.001-1.555l.001-.895c.03-.66.03-.66.267-.897"/><path fill="#b48c1c" d="m342.932 183.973.418.357c3.384 2.908 6.008 6.23 8.376 9.984l.298.468c5.907 9.394 7.456 21.412 5.027 32.121-2.147 8.945-7.063 17.73-14.357 23.581l-.724.592c-9.201 7.414-20.948 10.903-32.76 9.807-11.62-1.196-22.609-6.844-30.041-15.812a57 57 0 0 1-1.602-2.108l-.32-.44c-6.829-9.521-9.346-21.373-7.517-32.857.865-4.893 2.569-9.591 4.985-13.942l.251-.452c1.811-3.215 4.086-6.044 6.642-8.714l.597-.628c6.799-6.948 16.334-11.426 26.024-12.533l.646-.079c12.366-1.271 24.71 2.606 34.057 10.655"/><path fill="#fff" d="M283.126 496.247h19.057a6081 6081 0 0 1 8.011 27.482l1.516 5.241 3.097 10.713c.545-1.372.969-2.74 1.34-4.167l.177-.67q.289-1.098.576-2.197l.411-1.561.871-3.317 1.358-5.165.227-.863.454-1.724.68-2.583a4440 4440 0 0 1 4.108-15.516q.37-1.396.744-2.791l.216-.817.195-.73.169-.631c.146-.468.146-.468.384-.704l1.733-.027h.549q.903 0 1.806.004l1.249.001 3.293.005q1.679.004 3.357.005 3.297.005 6.593.012a51 51 0 0 1 1.293 4.299l.161.628.526 2.058.377 1.469.801 3.127q.624 2.443 1.252 4.886l.21.82.422 1.646.636 2.477q1.857 7.236 3.733 14.465l.442 1.705 1.581 6.092 4.309-14.309q.581-1.988 1.164-3.974l1.598-5.459.397-1.357.586-2q1.082-3.699 2.168-7.398l1.592-5.431.279-.954q.188-.645.378-1.289l.213-.728c.179-.537.179-.537.417-.773a41.49 41.49 0 0 1 1.798-.027h.571q.937 0 1.875.004l1.297.001 3.42.005q1.743.004 3.487.005l6.847.012c-.134 1.063-.329 2.042-.664 3.061l-.267.817-.291.877-.304.928-.65 1.976q-.517 1.565-1.029 3.129l-.347 1.058-.173.53-.524 1.594q-1.484 4.526-2.942 9.061l-.919 2.851-.231.715q-1.416 4.385-2.84 8.769-1.97 6.067-3.934 12.138-2.161 6.682-4.327 13.363l-.563 1.737-.783 2.419-.231.711q-.327 1.01-.658 2.017l-.259.791-.258.781-.235.714c-.201.547-.201.547-.439.783a38.7 38.7 0 0 1-1.703.035l-.54.002-1.776.003-1.229.002q-1.29.003-2.58.002-1.656 0-3.312.007-1.27.004-2.54.003-.611 0-1.222.003-.852.004-1.706.001l-.513.004c-1.166-.008-1.166-.008-1.697-.534l-.543-1.881-.159-.595q-.264-.987-.523-1.975l-.374-1.403q-.505-1.894-1.006-3.79-.521-1.965-1.045-3.93l-1.278-4.808a2491 2491 0 0 0-3.143-11.722l-1.34-4.958q-.385-1.419-.767-2.841l-.28-1.032-.377-1.397-.212-.786c-.148-.666-.148-.666-.148-1.61h-.477l-.093.839c-.118.931-.318 1.817-.562 2.725l-.128.478q-.21.786-.424 1.57l-.304 1.136-.831 3.084-.873 3.241-1.103 4.096q-1.288 4.784-2.564 9.572l-1.179 4.413q-.479 1.788-.954 3.575a983 983 0 0 1-.9 3.368l-.331 1.243q-.225.847-.454 1.695l-.132.504c-.309 1.135-.309 1.135-.84 1.661l-1.726.073-.539.005q-.884.008-1.768.01l-1.227.006a736 736 0 0 1-2.573.007q-1.65.003-3.3.021-1.267.009-2.534.009-.608.001-1.217.008-.85.009-1.7.003l-.51.01c-.468-.007-.468-.007-1.247-.152-.636-.747-.893-1.606-1.187-2.531l-.262-.815-.279-.885-.298-.931q-.401-1.257-.8-2.515-.423-1.332-.848-2.662-.78-2.443-1.556-4.888-.784-2.465-1.57-4.929-1.172-3.673-2.341-7.345l-2.201-6.912-.176-.551-.713-2.239-1.264-3.967-3.421-10.735-1.378-4.323-1.119-3.512-.696-2.184-.319-.999-.15-.471-.147-.461-.424-1.337q-.31-.971-.627-1.941l-.331-1.024-.158-.48c-.251-.779-.365-1.354-.365-2.183M.028 597.263h19.934l.014 5.342q.024 8.498.052 16.995l.01 2.648.001.532q.014 4.245.024 8.491.012 4.37.028 8.737l.015 5.375q.005 2.074.014 4.148l.004 1.682.276 8.776.051.793c.166 2.166.699 3.95 1.647 5.895l.334.771c.797 1.745 1.867 3.053 3.225 4.405l.322.348c3.397 3.113 9.193 3.622 13.595 3.463l.505-.024a41 41 0 0 1 1.107-.03c3.598-.053 7.116-.937 9.817-3.449.755-.823 1.343-1.723 1.946-2.661l.62-.711c3.383-4.183 2.264-13.187 2.276-18.181l.007-1.755q.008-1.874.013-3.748l.02-5.42.03-8.798.03-8.536.002-.533.01-2.648q.04-10.954.077-21.907h19.934a61783 61783 0 0 1 .013 26.02l.005 8.663q.004 4.453.004 8.905 0 2.743.004 5.485v4.222l.002 1.72c.02 13.462.02 13.462-1.779 19.325q-.159.524-.306 1.05c-1.467 5.185-4.18 9.42-8.385 12.847l-.469.384c-9.941 7.893-23.47 8.027-35.546 6.822-7.104-.81-13.77-2.937-19.042-7.911a97 97 0 0 0-.804-.707 374 374 0 0 0-1.365-1.206c-.814-.769-1.45-1.655-2.102-2.558l-.327-.434c-3.279-4.406-4.454-9.506-5.131-14.861l-.08-.625c-.606-4.956-.668-9.932-.66-14.918v-1.72q0-2.072.003-4.144l.002-4.831q0-4.306.005-8.613l.005-8.355v-3.116q.005-10.722.013-21.444M423.882 494.24c2.725-.064 5.43.039 8.15.224l.846.057c4.367.323 8.708 1.049 12.534 3.317l.458.266c1.937 1.136 3.592 2.194 4.947 4.033l.516.568c4.856 5.466 3.98 14.238 3.996 21.062q.004 1.658.012 3.314.022 4.708.035 9.415.006 2.611.021 5.223.007 1.372.009 2.745c.006 7.276.375 14.167 3.378 20.877.378.866.544 1.337.258 2.24q-3.612.042-7.225.062-1.678.008-3.355.028-1.619.019-3.236.023-.618.003-1.236.013-.864.012-1.729.009l-.518.013c-.476-.005-.476-.005-1.266-.148-.628-.789-.889-1.655-1.185-2.617l-.25-.805-.254-.833-.262-.846a492 492 0 0 1-.634-2.065l-.527.448c-6.56 5.547-14.269 8.959-22.971 8.27-6.488-.691-12.486-2.795-16.76-8.001a27 27 0 0 1-2.276-3.583l-.376-.698c-1.817-3.648-1.903-7.471-1.739-11.483l.024-.922c.306-4.056 2.257-8.023 5.146-10.781l.546-.701c.684-.85 1.498-1.437 2.391-2.046l.503-.346c3.255-2.189 6.892-3.316 10.647-4.269l.743-.188c2.475-.62 4.963-1.161 7.457-1.693 3.74-.799 7.472-1.615 11.17-2.595l.882-.233c1.118-.302 2.192-.612 3.26-1.066a20.7 20.7 0 0 0-.382-4.553l-.1-.612c-.284-1.497-.802-2.586-1.868-3.672-2.187-1.474-4.728-1.77-7.285-1.911l-.897-.051c-2.778-.075-6.528.025-8.738 1.962a28 28 0 0 0-2.115 2.627l-.528.732c-.492.838-.895 1.707-1.294 2.594-.293.496-.293.496-.998.735a23 23 0 0 1-1.535-.233l-.47-.083q-.767-.137-1.534-.28l-1.067-.192q-1.118-.2-2.235-.406-1.433-.262-2.867-.519l-2.732-.495-.527-.095q-.739-.134-1.477-.27l-.849-.154c-.686-.139-.686-.139-1.391-.378.302-3.271 1.65-6.218 3.29-9.017l.345-.594a14.2 14.2 0 0 1 2.342-2.932c.428-.414.802-.86 1.175-1.325.819-.956 1.675-1.681 2.717-2.374l.678-.454c5.445-3.408 11.935-4.172 18.212-4.338m10.912 39.759l-1.705.472-.459.127a153 153 0 0 1-6.217 1.577l-.657.154-2.599.597c-3.427.762-6.855 1.56-9.073 4.561l-.386.51c-.767 1.07-1.358 1.993-1.311 3.36.519 3.003 1.021 5.596 3.577 7.467 2.21 1.547 4.158 2.276 6.888 2.098l.494-.026c3.798-.25 7.204-2.033 9.802-4.855 3.952-4.63 3.167-10.63 3.099-16.376-.489 0-.987.203-1.453.334m-228.442-39.774a60.23 60.23 0 0 1 2.328.019l.831.013c8.83.321 16.399 3.663 22.525 10.007 8.052 9.262 9.056 21.421 9.056 33.161l-46.473.239c.835 5.857 1.773 10.241 6.504 13.8 2.402 1.661 5.694 2.798 8.623 2.328a60 60 0 0 0 2.017-.428l.687-.142c3.024-.678 4.604-2.259 6.239-4.823.46-.855.839-1.721 1.192-2.624q.215-.5.432-.999l.283-.671a19.5 19.5 0 0 1 3.691.259l.505.083q.818.136 1.634.276l1.142.191q1.192.199 2.384.401 1.528.259 3.058.513l2.354.395 1.128.189 1.571.266.903.152c.696.138.696.138 1.173.376-.621 5.748-5.52 11.494-9.744 15.105a25 25 0 0 1-2.649 1.834l-.807.507c-4.409 2.685-9.129 3.675-14.208 4.264l-.565.069c-8.068.928-18.138-.85-24.731-5.89a38 38 0 0 1-1.634-1.575 95 95 0 0 0-.969-.82c-5.492-4.848-8.22-11.743-9.756-18.742l-.121-.53c-1.345-6.101-.971-13.166.121-19.271l.085-.493c.17-.961.385-1.903.63-2.847l.117-.462c1.088-4.226 2.812-7.933 5.364-11.467l.562-.799c.902-1.254 1.799-2.358 3.001-3.331.501-.4.501-.4.97-.879 5.484-5.384 13.072-7.464 20.547-7.654m-7.788 19.431c-.415.508-.75 1.019-1.085 1.582l-.432.618c-.927 1.409-1.448 2.777-1.818 4.407l-.118.52c-.296 1.472-.254 2.672-.254 4.237h26.692c-.276-3.335-.276-3.335-1.132-6.442l-.188-.502c-1.301-3.351-3.612-5.902-6.783-7.609-5.398-2.071-10.781-.785-14.882 3.189m354.682 109.618h19.946l7.193 20.98.838 2.462.211.62q1.503 4.41 3.015 8.817l1.249 3.644q.594 1.734 1.191 3.467l.731 2.135.34.988q.232.672.461 1.346l.261.759c.183.619.183.619.183 1.324h.475l.071-.415c.303-1.633.779-3.171 1.32-4.74l.274-.807.734-2.155q.389-1.14.775-2.28l.156-.461.313-.923.469-1.382q1.259-3.719 2.477-7.449l4.387-13.285.545-1.641.87-2.62.32-.966 2.486-7.418h19.709c-.157.93-.281 1.624-.593 2.478l-.22.608-.241.653-.253.695q-.413 1.133-.83 2.265l-.584 1.596a1590 1590 0 0 1-4.292 11.574l-3.777 10.175a5162 5162 0 0 1-4.672 12.626 4512 4512 0 0 0-3.858 10.429 2978 2978 0 0 1-5.883 15.837q-.645 1.722-1.284 3.445c-4.746 12.803-4.746 12.803-8.379 16.214-.639.612-1.206 1.269-1.773 1.945-3.98 4.22-10.502 5.173-16.029 5.449a41 41 0 0 1-3.61-.084l-.717-.044c-7.412-.481-7.412-.481-8.306-1.366-.111-.494-.111-.494-.185-1.113l-.086-.702-.087-.763-.094-.785-.193-1.652q-.145-1.255-.297-2.508l-.188-1.607-.09-.75a35 35 0 0 1-.205-4.694l1.38.088.93.058a20 20 0 0 1 2.015.259c3.554.592 7.569.134 10.812-1.511 2.753-1.942 4.709-6.113 5.759-9.237l.288-.749c.224-1.07.011-1.718-.403-2.69l-.208-.522q-.226-.56-.457-1.12-.373-.905-.735-1.815-.386-.967-.776-1.933a330 330 0 0 1-2.507-6.457q-.635-1.673-1.272-3.344l-.261-.685q-1.482-3.882-2.974-7.761l-1.138-2.963-.291-.759q-1.592-4.147-3.181-8.295a20651 20651 0 0 0-5.84-15.234q-1.22-3.19-2.462-6.372l-1.08-2.773q-.252-.649-.508-1.297-.349-.885-.693-1.773l-.208-.522c-.356-.923-.464-1.499-.464-2.514m-24.013-123.121a26 26 0 0 1 1.725 1.852l.35.339c2.309 2.378 3.297 5.74 3.914 8.902l.116.594c.37 2.044.514 4.087.62 6.158l.03.569c.242 4.669.251 9.338.245 14.013q-.001 1.805.001 3.611l-.003 6.028q-.004 3.482.001 6.965.003 3.012.001 6.024-.002 1.79.001 3.581.001 1.672-.002 3.343v1.227q.001.834-.003 1.668v.944c-.06.718-.06.718-.533 1.192-.606.046-1.185.062-1.79.057l-.559.002q-.917 0-1.835-.005h-1.271q-1.332 0-2.665-.005a976 976 0 0 0-3.423-.005l-2.625-.003-1.263-.002q-.88 0-1.761-.005l-.532.001c-1.2-.008-1.2-.008-1.464-.272a40 40 0 0 1-.034-1.632l-.002-.524q-.004-.875-.005-1.751l-.004-1.25q-.006-1.351-.009-2.702l-.015-4.286q-.025-6.096-.043-12.191-.01-3.364-.026-6.727l-.012-3.555c.412-10.974.412-10.974-4.21-20.493-1.471-1.299-4.423-2.094-6.343-2.139q-.691.052-1.377.148l-.89.098c-3.879.513-6.911 2.401-9.426 5.377-4.249 5.549-3.26 14.357-3.274 20.947q-.006 1.622-.014 3.243-.015 3.059-.024 6.116-.019 5.496-.044 10.993-.01 1.927-.014 3.854l-.01 2.383-.009 2.613-.003.853c-.031.625-.031.625-.268.862a40 40 0 0 1-1.763.03l-.559.002q-.919.001-1.838-.001l-1.272.001-2.669-.001a980 980 0 0 0-3.429.001h-3.893q-.882.001-1.764-.002l-.534.002c-1.202-.005-1.202-.005-1.466-.269a19 19 0 0 1-.029-1.136l-.002-.749.003-.833-.001-.877q0-1.212.002-2.422v-2.607l.002-4.521.003-6.537q0-5.302.004-10.604l.005-10.304v-.641l.001-3.183.012-26.43a5490 5490 0 0 1 10.293-.018q1.574-.004 3.147-.005l1.204-.002q.839-.002 1.679-.002l.508-.003c1.145.003 1.145.003 1.409.266a51.93 51.93 0 0 1 .075 1.889l.014.573.044 1.818.031 1.23q.038 1.51.072 3.02l.568-.627.757-.83.372-.411c9.114-9.956 27.423-12.135 37.795-2.827M332.834 629.006l.379.362c.431.398.884.762 1.34 1.132 1.116.958 1.922 2.071 2.744 3.277l.47.689c4.622 6.944 6.222 15.283 6.348 23.485l.011.676q.015 1.035.019 2.072l.004.653c-.005 1.508-.005 1.508-.272 1.772a40.48 40.48 0 0 1-1.742.028l-.559.001-1.868-.002h-1.334l-3.633-.003q-1.895-.003-3.791-.002l-7.186-.005q-4.089-.004-8.179-.005l-16.828-.012.149.775.196 1.02.099.509c.18.941.34 1.881.475 2.829.257 1.384.845 2.519 1.558 3.728l.383.656c1.104 1.791 2.167 2.688 4.063 3.65q.48.379.955.764c1.098.723 2.291.967 3.566 1.234l.604.132c1.507.28 2.713.138 4.185-.249l.579-.147q.84-.219 1.674-.456l.571-.157a50 50 0 0 0 2.19-.651q.25-.583.477-1.175.446-.645.925-1.264c1.228-1.635 2.052-3.136 2.656-5.085 2.239.139 4.434.459 6.643.824l1.064.173 2.769.453 2.838.464q2.773.452 5.546.908c.432 1.427-.38 2.602-.97 3.909l-.193.429c-1.227 2.71-2.82 4.958-4.806 7.183l-.37.439a15.6 15.6 0 0 1-2.39 2.309l-.657.517-.641.497-.539.455c-6.051 4.483-14.264 5.783-21.663 5.423l-.631-.023c-8.434-.333-16.102-3.191-22.048-9.147l-.477-.447c-6.399-6.413-8.412-16.168-8.387-24.837q.001-.775-.001-1.552c-.007-9.516 2.282-19.448 9.238-26.479a41 41 0 0 1 2.554-2.135 32 32 0 0 0 1.431-1.191c10.693-9.042 30.452-7.728 40.462 1.597m-30.019 11.075a6.6 6.6 0 0 0-.921 1.358c-.272.523-.272.523-.739 1.164-1.998 2.91-1.674 4.546-2.159 8.529h26.021c-.713-6.31-.713-6.31-4.269-11.454-.987-.751-2.045-1.35-3.132-1.948l-.745-.512c-.683-.426-1.149-.596-1.94-.722l-.616-.107c-4.353-.401-8.408.568-11.5 3.692m-151.454-13.294c.668.606.668.606 1.187 1.185l.569.617c2.401 2.941 4.013 6.543 4.416 10.289l.121.829c.381 2.646.42 5.248.411 7.917l.002 1.458q0 1.962-.003 3.923-.002 2.056-.002 4.113 0 3.447-.005 6.894-.005 3.988-.005 7.977a9838 9838 0 0 1-.005 10.951q0 1.92-.004 3.838l-.001 1.411q0 .959-.003 1.918l.002.571c-.006 1.277-.006 1.277-.271 1.541-.569.024-1.131.032-1.701.031l-.539.001q-.886.001-1.773-.001l-1.227.001-2.574-.001a912 912 0 0 0-3.308.001h-3.754q-.851.001-1.702-.001l-.514.001c-1.16-.005-1.16-.005-1.425-.269-.025-.434-.033-.87-.036-1.305l-.006-.859-.003-.952q-.001-.499-.006-.997l-.01-2.157q-.008-1.718-.019-3.436-.019-3.357-.035-6.714a11886 11886 0 0 0-.06-11.299l-.168-11.861-.014-.52c-.011-5.926-.011-5.926-2.491-11.108l-.406-.692c-1.082-1.783-2.233-2.351-4.18-2.887l-.874-.214-.838-.266c-2.679-.677-6.299.217-8.772 1.359a9.8 9.8 0 0 0-1.548 1.278l-.44.444c-.43.469-.826.955-1.222 1.452l-.499.589c-1.512 1.812-2.171 3.407-2.617 5.694l-.121.572c-.614 3.081-.597 6.244-.602 9.373l-.005 1.127-.009 2.403q-.005 1.9-.015 3.799a7765 7765 0 0 0-.043 10.792q-.01 2.99-.026 5.979-.009 1.89-.013 3.778-.003 1.171-.011 2.341-.003.544-.003 1.088 0 .74-.007 1.48l-.003.837c-.062.645-.062.645-.536 1.119-.585.046-1.143.062-1.729.057l-.539.002q-.885 0-1.769-.004l-1.226-.001q-1.285 0-2.57-.005a909 909 0 0 0-3.302-.005q-1.265 0-2.531-.003l-1.218-.002q-.849 0-1.698-.005l-.514.001c-1.157-.008-1.157-.008-1.421-.272-.023-.368-.03-.738-.03-1.107l-.001-.729.002-.812v-.854l.001-2.358v-2.539q0-2.201.003-4.403l.003-6.365q0-5.163.004-10.326l.005-10.033v-3.725q.004-12.868.013-25.737 3.43-.009 6.859-.012l3.184-.006q1.536-.004 3.071-.005l1.174-.002 1.639-.002.945-.002c.695.029.695.029.932.266.038.614.062 1.223.076 1.838l.015.557.043 1.768.031 1.196a968 968 0 0 1 .073 2.938c.86-.835 1.684-1.676 2.448-2.601 8.704-10.027 25.825-9.614 35.773-2.14m305.152-.122l.552.505a29.05 29.05 0 0 0 1.631 1.427c1.398 1.127 2.273 2.406 3.184 3.939l.439.73c2.492 4.229 2.492 4.229 2.378 6.607q-2.177.44-4.356.869-1.488.293-2.974.59-1.89.377-3.783.747-.768.151-1.536.305-1.092.22-2.188.43l-.671.138-.622.118-.542.107c-.617.02-.936-.134-1.454-.458-.316-.405-.316-.405-.59-.887l-.307-.53-.311-.554-.313-.547-.306-.533-.298-.516a18 18 0 0 1-.578-1.14c-.585-.751-1.34-.964-2.217-1.252l-.52-.181q-.51-.176-1.021-.347a57 57 0 0 1-1.118-.393c-2.81-1.006-5.672-.743-8.595-.428l-.794.073c-2.082.226-4.336.602-5.814 2.188l-.309.659-.332.66c-.308 1.049.01 1.91.452 2.883 1.337 2.239 5.235 2.897 7.587 3.557l.477.137c2.341.667 4.692 1.253 7.066 1.79 19.779 4.485 19.779 4.485 25.967 12.674l.367.44c1.727 2.517 2.373 6.98 2.066 9.974-.054.561-.082 1.122-.113 1.684-.416 5.522-3.175 10.148-7.329 13.752a60 60 0 0 1-2.146 1.66l-.747.554c-5.574 3.777-12.396 5.053-19.049 5.138l-.997.028c-9.149.192-19.138-1.227-26.01-7.73l-.737-.705c-.434-.4-.888-.77-1.344-1.145-1.068-.927-1.841-1.979-2.618-3.151l-.433-.648c-1.517-2.355-3.519-5.578-3.398-8.468a24.5 24.5 0 0 1 3.226-.746l.905-.143.965-.15 1.004-.158 2.099-.326a595 595 0 0 0 2.674-.42q1.036-.163 2.073-.323l.985-.155c1.734-.275 3.392-.489 5.149-.425l.236.54q.444 1.003.895 2.004.287.641.567 1.285c1.489 3.283 3.364 4.521 6.647 5.88 4.102 1.516 8.722.687 12.882-.222l.54-.113c1.532-.36 2.411-1.012 3.262-2.304.897-1.54 1.769-3.278 1.341-5.083-.892-1.381-2.067-1.774-3.582-2.314l-.762-.277c-2.79-.981-5.648-1.665-8.527-2.337q-2.36-.557-4.711-1.139l-.468-.116a101 101 0 0 1-8.022-2.326l-.497-.166a69 69 0 0 1-5.204-2.002l-.481-.206c-2.422-1.064-4.145-2.899-5.953-4.768a20 20 0 0 0-.924-.855c-2.341-2.591-3.631-6.236-3.696-9.671l-.046-.91a34 34 0 0 1 .046-2.885l.023-.54c.254-4.776 2.769-9.152 6.219-12.433 10.343-9.148 34.787-10.045 45.439-.946m-253.424-3.39h19.514c1.057 2.388 1.057 2.388 1.368 3.242l.216.589.225.622.245.673.796 2.187.565 1.549 1.173 3.219q.965 2.649 1.937 5.296 1.056 2.877 2.107 5.756.636 1.743 1.277 3.484c2.16 5.872 4.208 11.763 6.077 17.735.544-.819.793-1.644 1.079-2.573l.376-1.192.202-.643c1.716-5.441 3.673-10.778 5.685-16.115a849 849 0 0 0 2.102-5.65l.307-.834 1.177-3.202 5.294-14.143h19.278c-.264 1.858-.264 1.858-.611 2.737l-.235.605-.259.646-.271.694q-.449 1.14-.901 2.277l-.644 1.635q-1.004 2.545-2.016 5.089l-.304.765q-1.344 3.381-2.694 6.761a5654 5654 0 0 0-5.863 14.752l-1.051 2.651q-2.584 6.514-5.158 13.032l-1.89 4.782-1.531 3.88-.946 2.395-.436 1.104c-.68 1.728-1.355 3.439-2.226 5.081q-3.2.034-6.401.049-1.485.007-2.972.023-1.433.015-2.867.018-.548.003-1.095.01-.765.01-1.531.008l-.882.006c-.709-.114-.709-.114-1.134-.529a14.9 14.9 0 0 1-.721-1.542l-.242-.609-.258-.66-.276-.696-.59-1.497q-.635-1.615-1.275-3.227l-.66-1.668-2.799-6.995-1.373-3.402-.294-.73q-2.007-4.983-4.006-9.968l-.653-1.627-3.574-8.908-.227-.566-.454-1.131-1.127-2.808-.445-1.109-.221-.552-1.304-3.25a1444 1444 0 0 0-3.902-9.664l-.578-1.417a548 548 0 0 0-1.029-2.504l-.439-1.076-.199-.475c-.36-.889-.436-1.392-.436-2.39m334.659-25.01c.265.54.261.832.261 1.431l.001.606-.003.666v.701q0 1.15-.004 2.3l-.001 1.592q-.001 2.097-.005 4.196-.004 2.139-.005 4.278-.003 4.2-.011 8.4l.448-.001 4.602-.012 1.719-.004 2.465-.006.782-.003h.719l.636-.002c.478.028.478.028.71.265a26.02 26.02 0 0 1 .034 1.368l.005.887v.966l.003.983q.002 1.033.001 2.065.001 1.325.008 2.65.003 1.016.002 2.032l.004.977q.002.682 0 1.365l.001.786c-.058.613-.058.613-.522 1.087-.497.057-.497.057-1.119.054h-.705l-.763-.008-.779-.002q-1.236-.005-2.472-.015l-1.673-.006q-2.052-.008-4.106-.023.028 6.758.067 13.514.017 3.138.031 6.276.011 2.736.028 5.471.01 1.447.014 2.896.005 1.364.015 2.728l.004.999c-.096 3.327-.096 3.327 1.285 6.215 1.135.79 2.605 1.061 3.952.922a32 32 0 0 0 2.242-.589q.753-.212 1.508-.419l.662-.195c.697-.152 1.33-.166 2.041-.141l1.089 9.078.093.79a36 36 0 0 1 .212 4.823 65.72 65.72 0 0 1-2.323.948l-.762.302c-5.683 2.041-13.616 2.594-19.35.409-1.582-.782-2.976-1.921-4.355-3.022-.438-.341-.438-.341-1.136-.732-.869-.683-1.168-1.39-1.581-2.407l-.242-.578q-.374-.915-.731-1.836l-.25-.629-.239-.611-.214-.546c-2.542-7.524-.935-17.975-.913-25.899q.007-2.913.01-5.826.008-5.971.023-11.941l-.7.004q-1.28.006-2.563.009l-1.111.005q-.796.004-1.593.005l-.505.004a31.76 31.76 0 0 1-1.195-.027c-.232-.237-.232-.237-.26-.841l.001-.815v-.92l.004-1.002.001-1.019.006-2.687q.004-1.61.005-3.221.004-2.448.011-4.898h7.899l-.122-2.879q-.034-1.144-.058-2.289a88 88 0 0 0-.083-2.407c-.237-5.151-.237-5.151.57-6.41.788-.757 1.703-1.133 2.717-1.483.696-.258 1.298-.646 1.927-1.04l1.424-.834q3.731-2.19 7.448-4.406l.627-.372q.706-.423 1.409-.856l.755-.46.689-.425c.587-.309.587-.309 1.284-.309M255.14 469.208h18.941l.013 41.742v.886l.005 14.214.007 23.574q.002 3.082.001 6.163l.002 3.562a1765 1765 0 0 1 .001 4.437q.001.8-.001 1.597l.001.9c-.029.656-.029.656-.26.893-.575.024-1.144.032-1.719.031l-.545.001q-.896.001-1.793-.001l-1.24.001q-1.302.001-2.603-.001-1.672-.002-3.344.001h-3.796q-.86.001-1.72-.001l-.52.001c-1.173-.005-1.173-.005-1.43-.269a35 35 0 0 1-.029-1.556v-.501q-.001-.84.001-1.682l-.001-1.21.002-3.341v-3.597l.002-6.238.003-9.018.004-14.63.005-14.216v-.884l.001-4.392q.004-18.234.012-36.466m135.715 152.11l.648.055c2.844.3 5.475.939 8.106 2.064l.715.301c1.232.562 1.232.562 1.67.9.27.886.229 1.437-.084 2.301l-.23.65-.257.698-.262.732q-.418 1.16-.841 2.317l-.82 2.281-.539 1.485a87 87 0 0 0-1.167 3.36l-.187.574q-.17.52-.325 1.045c-.15.456-.15.456-.502 1.155-.721.334-1.051.284-1.796.025l-.649-.335-.727-.359q-.745-.38-1.486-.763c-2.666-1.308-4.799-1.169-7.561-.228q-.615.202-1.231.4l-.535.181c-.471.131-.471.131-1.182.131l-.157.476c-.34.762-.762 1.384-1.237 2.066-1.412 2.041-2.184 3.771-2.635 6.231l-.194.871c-.475 2.257-.633 4.554-.766 6.853l-.032.533c-.221 3.964-.25 7.931-.274 11.9l-.003.494q-.022 4.06-.036 8.119-.01 3.088-.027 6.176-.008 1.207-.01 2.413a787 787 0 0 1-.011 2.661v.801l-.006.727-.002.632c-.06.501-.06.501-.534.976-.584.045-1.142.062-1.726.057l-.538.002q-.883 0-1.766-.005h-1.224q-1.283 0-2.565-.006a725 725 0 0 0-3.297-.004l-2.526-.003-1.216-.002q-.849 0-1.696-.005h-.512c-1.155-.007-1.155-.007-1.419-.272-.023-.368-.03-.737-.029-1.106l-.002-.73.002-.812v-.854q-.001-1.18.001-2.359l.001-2.539q0-2.202.002-4.403l.003-6.367q0-5.164.004-10.328l.005-10.035v-.625l.001-3.101q.004-12.871.012-25.742h17.537l.237 8.062 2.013-2.816c.821-1.13 1.66-2.088 2.743-2.973.456-.363.456-.363.835-.753 1.257-1.23 2.774-1.672 4.421-2.202l.836-.289c1.728-.569 3.215-.843 5.029-.689m90.389 1.957h18.939l.012 26.256.001 3.097v.622l.005 9.995q.004 5.124.004 10.248 0 3.165.003 6.329l.002 4.334.001 2.504v2.709l.002.808-.001.727v.633c-.029.47-.029.47-.266.706a37.86 37.86 0 0 1-1.718.03l-.545.002q-.896.001-1.791-.001l-1.239.001-2.601-.001a930 930 0 0 0-3.341.001h-3.793q-.86.001-1.719-.002l-.52.002c-1.171-.005-1.171-.005-1.435-.268a18 18 0 0 1-.029-1.103l-.002-.727.002-.808v-.851l.001-2.349.001-2.53.002-4.386.003-6.342q0-5.143.004-10.287l.005-9.996v-.622l.001-3.089q.004-12.82.012-25.642m-306.135 0h18.939l.013 29.353v.622l.005 9.995q.004 5.124.004 10.248l.004 6.329.002 6.838q.002 1.355.001 2.709l.002.808-.002.727v.633c-.029.47-.029.47-.269.706a37.86 37.86 0 0 1-1.718.03l-.544.002q-.895.001-1.791-.001l-1.239.001-2.599-.001a930 930 0 0 0-3.34.001h-3.791q-.86.001-1.719-.002l-.519.002c-1.171-.005-1.171-.005-1.439-.268a18 18 0 0 1-.029-1.103l-.001-.727.002-.808-.001-.851q0-1.175.002-2.349v-2.53l.002-4.386.003-6.342.004-10.287q.004-4.998.005-9.996v-.622l.001-3.089z"/><path fill="#b48c1c" d="M391.859 105.685a10.9 10.9 0 0 1 3.315 7.739c-.006 3.088-1.164 5.788-3.374 7.99-2.559 1.865-5.091 2.844-8.287 2.594-3.135-.547-5.6-1.771-7.545-4.361-1.222-1.939-1.823-3.816-1.793-6.105l.005-.593c.073-2.707 1.085-4.933 2.948-6.903 4.432-4.166 10.002-3.712 14.731-.361m-43.902 231.928c2.747 1.758 4.382 4.193 5.08 7.271.477 3.148-.449 6.183-2.408 8.719-2.598 2.438-5.373 3.543-8.974 3.546-2.954-.054-5.324-1.191-7.461-3.118-2.264-2.319-3.087-5.021-3.031-8.144.204-2.298 1.033-4.28 2.539-6.066l.357-.44c3.391-3.706 9.617-4.125 13.898-1.768M208.895 131.967c2.007 1.562 3.598 3.711 4.075 6.24.356 3.372.011 6.265-2.052 9.058-1.894 2.179-4.281 3.564-7.19 3.778-2.993.126-5.661-.489-8.003-2.45-2.333-2.2-3.523-4.759-3.633-7.952.056-3.066 1.1-5.451 3.176-7.679 3.708-3.552 9.422-3.799 13.627-.995m38.317 191.639c2.139 1.424 3.811 3.434 4.602 5.903.612 3.249.333 6.327-1.397 9.183-1.483 2.097-3.831 3.627-6.32 4.26-3.081.474-5.881.114-8.511-1.614-2.151-1.622-3.79-3.793-4.348-6.48-.381-3.089.033-6.031 1.916-8.578l.38-.469.342-.439c3.254-3.702 9.228-4.121 13.336-1.766m175.007-38.016c2.623 1.758 4.182 4.193 4.849 7.271.455 3.148-.428 6.184-2.298 8.72-2.48 2.437-5.129 3.542-8.567 3.545-2.82-.054-5.081-1.191-7.121-3.118-2.161-2.319-2.947-5.021-2.894-8.144a10.84 10.84 0 0 1 2.424-6.066l.341-.44c3.236-3.705 9.179-4.125 13.266-1.768m31.578-99.655c2.164 1.55 3.607 3.717 4.217 6.317.473 2.979.082 5.809-1.587 8.356-1.751 2.289-3.922 3.899-6.81 4.425-3.273.21-5.777-.2-8.509-2.131l-.606-.4c-2.094-1.99-3.179-4.371-3.299-7.236-.048-3.09.608-5.561 2.671-7.94 3.806-3.806 9.447-4.254 13.923-1.391m-259.031 51.956c2.124 2.158 3.284 5.026 3.32 8.092-.004 2.724-.749 4.626-2.194 6.873l-.415.663c-2.127 2.273-4.891 3.456-7.916 3.591-2.833-.049-5.515-1.18-7.619-3.144-2.335-2.582-2.903-5.647-2.853-9.054.108-2.851 1.481-5.231 3.446-7.159 4.435-3.884 9.738-3.186 14.231.138m98.959-156.007a10.58 10.58 0 0 1 4.219 6.302c.472 2.97.082 5.794-1.588 8.335-1.8 2.363-3.885 3.851-6.813 4.413-3.317.362-6.182-.202-8.857-2.284-2.025-1.852-3.339-4.105-3.536-6.852-.14-3.295.425-5.972 2.646-8.526 3.807-3.797 9.451-4.243 13.929-1.388"/><path fill="#fff" d="M481.214 597.257h19v17h-19zm-306.108.006h18.944l.015 8.351.006 2.641.002 1.557.002 1.044q.002.788.002 1.577l.002.899c-.029.663-.029.663-.269.899l-1.718.03-.545.002q-.896.001-1.791-.001l-1.239.001-2.601-.001q-1.67-.002-3.341 0h-2.56l-1.232.001q-.86.001-1.719-.002l-.519.002c-1.172-.005-1.172-.005-1.439-.268a34 34 0 0 1-.027-1.562v-.503l.003-1.618.001-.996q.002-1.851.008-3.702z"/></g></svg>