<svg xmlns="http://www.w3.org/2000/svg" width="100mm" height="100mm" viewBox="0 0 100 100"><defs><clipPath id="b"><path fill="none" d="M0 7.606A7.607 7.607 0 1 0 7.607 0 7.61 7.61 0 0 0 0 7.606" data-name="Path 46"/></clipPath><clipPath id="c"><path fill="none" d="M59.388 23.57a6 6 0 0 1-.131-1.237l.013-.357a5.957 5.957 0 0 1 10.684-3.249v.009a5.87 5.87 0 0 1 1.212 3.6 5.956 5.956 0 0 1-11.783 1.237M1.597.003h-.151C1.092.029.784.129.402.159l-.364.13-.029.013-.014.044v63.173q0 .394.023.787l.028.367a14.92 14.92 0 0 0 4.6 9.7 16.28 16.28 0 0 0 11.007 4.5v-.128c0-2.761.014-47.025.027-48.768h12.949V76.99a16.35 16.35 0 0 0 16.107 16.083v-63.1h28.188V14.317H15.687A14.53 14.53 0 0 0 3.754.164q-.329-.05-.662-.089a14 14 0 0 0-1.446-.076z" data-name="Path 75"/></clipPath></defs><path fill="#a6332e" d="M67.274 98.924v-41.71A12.725 12.725 0 0 1 80 44.489v41.71a12.724 12.724 0 0 1-12.725 12.724" data-name="Path 1" style="stroke-width:.81639"/><path fill="#b03633" d="M73.425 39.19a4.864 4.864 0 1 1 4.86-4.865 4.865 4.865 0 0 1-4.86 4.865M32.993 27.78A11.706 11.706 0 0 0 20.42 16.24a1 1 0 0 0-.42.134v51.574a12.3 12.3 0 0 0 3.897 8.866 13.14 13.14 0 0 0 9.084 3.597s0-38.385.008-39.847h10.717c0 11.324.024 26.19.024 38.309a13.186 13.186 0 0 0 13.161 13.2V40.565h23.013V27.78Z" data-name="Path 2" style="stroke-width:.81639"/><path fill="#b03633" d="M32.448 7.285a6.212 6.212 0 1 0-6.213 6.21 6.21 6.21 0 0 0 6.213-6.21" data-name="Path 3" style="stroke-width:.81639"/><g data-name="Group 4"><path fill="#d9ae9e" d="M80 44.384A12.724 12.724 0 0 0 67.273 57.11v.105a12.7 12.7 0 0 1 4.658-9.84 12.25 12.25 0 0 1 7.749-2.889q.161-.001.245.005H80z" data-name="Path 32"/><path fill="#a6332e" d="M80 44.49h-.075zm0 .005L71.71 62.69l8.264 11.488-5.592 10.925 3.965 7.266A12.66 12.66 0 0 0 80 86.094zm-8.068 2.877a12.7 12.7 0 0 0-4.658 9.84v4.095c0-1.157.01-2.307.027-3.398v-1.35l.021.031q.008-.31.014-.608c.845-4.236 2.628-6.915 4.596-8.607m-4.658 15.838v35.61h.027V67.46a633 633 0 0 1-.027-4.25" data-name="Path 33"/><path fill="#95332f" d="M67.3 56.557v1.351c.005-.45.016-.898.023-1.319zm4.408 6.132-4.347 9.544s-.036-2.001-.063-4.772v31.36l.063-26.588 7.02 12.869 5.595-10.925z" data-name="Path 34"/><path fill="#c09f97" d="M78.377 92.423a12.8 12.8 0 0 1-4.426 4.612 11.4 11.4 0 0 0 4.444-4.572zm-10.869 6.5H67.3v.005s.074 0 .21-.006" data-name="Path 35"/><path fill="#983230" d="M78.347 92.37a12.73 12.73 0 0 1-10.99 6.45l-.057.102h.208a14.9 14.9 0 0 0 6.443-1.888 12.8 12.8 0 0 0 4.426-4.613z" data-name="Path 36"/><path fill="#983230" d="M74.382 85.103 67.355 98.82a12.73 12.73 0 0 0 10.993-6.45z" data-name="Path 37"/><path fill="#8c3230" d="m67.363 72.233-.062 26.588h.056l7.021-13.715z" data-name="Path 38"/><path fill="#d2bab5" d="M67.274 61.307v1.905z" data-name="Path 39"/><path fill="#bd8a7d" d="M79.676 44.489a12.25 12.25 0 0 0-7.745 2.888 12.66 12.66 0 0 1 7.99-2.888c-.055 0-.137-.005-.245-.005" data-name="Path 40"/><path fill="#9d312e" d="M79.925 44.49a12.66 12.66 0 0 0-7.993 2.884c-1.967 1.692-3.755 4.37-4.596 8.606q-.007.3-.012.608l4.387 6.101L80 44.495h-.074M67.3 57.913c-.015 1.09-.022 2.24-.025 3.399v1.905c0 1.5.012 2.958.025 4.245z" data-name="Path 41"/><path fill="#903231" d="M67.321 56.588q-.012.642-.022 1.32v9.551c.026 2.771.063 4.772.063 4.772l4.348-9.546z" data-name="Path 42"/></g><g data-name="Group 6"><g clip-path="url(#b)" data-name="Group 5" transform="matrix(.8164 0 0 .8164 20.026 1.074)"><path fill="#9a3333" d="M7.607 0a7.58 7.58 0 0 0-5.326 2.178l3.375 6.188L9.778.316A7.5 7.5 0 0 0 7.606 0" data-name="Path 43"/><path fill="#9d3433" d="m5.654 8.366-2.7 5.263a7.63 7.63 0 0 0 6.164 1.429l.091-.167z" data-name="Path 44"/><path fill="#903332" d="M2.281 2.178a7.6 7.6 0 0 0 .681 11.452l2.7-5.263z" data-name="Path 45"/></g></g><g clip-path="url(#c)" data-name="Group 7" transform="matrix(.8164 0 0 .8164 20.368 16.09)"><path fill="#b03633" d="M65.217 28.294a5.96 5.96 0 0 1-5.83-4.724 6 6 0 0 1-.13-1.236l.015-.359a5.955 5.955 0 0 1 10.683-3.249v.011a5.87 5.87 0 0 1 1.211 3.6 5.96 5.96 0 0 1-2.671 4.971 5.9 5.9 0 0 1-3.284.988M15.91 14.317A14.61 14.61 0 0 0 3.756.164C3.534.129 3.315.103 3.093.075a14 14 0 0 0-1.447-.076h-.195C1.151.031.827.126.52.155a1.7 1.7 0 0 0-.48.13L.013.298l-.014.043v63.172q0 .398.023.788l.028.368a15.02 15.02 0 0 0 4.729 9.639A15.8 15.8 0 0 0 15.66 78.74h.014l.234-.023s-.011-46.956 0-48.746H29.08v47.014a16.086 16.086 0 0 0 15.66 16.072h.448v-63.08h28.191v-15.66z" data-name="Path 47"/><path fill="#9a3333" d="m37.787 46.703-8.22 16.053 6.852 13.378 8.323-15.26v-1.015z" data-name="Path 48"/><path fill="#a53835" d="M29.083 30.162h-.04l.04.08z" data-name="Path 49"/><path fill="#a53835" d="M44.676 30.162H29.085v.08l8.7 16.461 6.964-13.583V30.2z" data-name="Path 50"/><path fill="#933534" d="m44.742 33.118-6.955 13.581 6.955 13.164z" data-name="Path 51"/><path fill="#9d3433" d="m36.418 76.134-4.917 9.016c3.728 7.015 11.505 7.82 13.244 7.913v-.669z" data-name="Path 52"/><path fill="#903332" d="m44.742 60.874-8.325 15.26 8.325 16.253z" data-name="Path 53"/><path fill="#9a3333" d="M46.781 14.764h-1.55l-14.184 7.5 13.625 7.9h.068v-.186h.662l13.982-6.409a6 6 0 0 1-.13-1.236l.015-.357a5.956 5.956 0 0 1 10.683-3.248v.008-.008a5.956 5.956 0 0 0-10.683 3.248z" data-name="Path 54"/><path fill="#933534" d="M44.742 30.162h-.066l.066.038z" data-name="Path 55"/><path fill="#a53835" d="m46.048 14.334-30.135.333v15.311h.548l14.587-7.714-12.939-7.5h27.127z" data-name="Path 56"/><path fill="#933534" d="M45.236 14.764H18.109l12.939 7.5z" data-name="Path 57"/><path fill="#9d3433" d="M72.931 14.318H57.199l-11.148.026.285.166.335.193.11.062h26.15zm0 3.059-2.971 1.361a5.88 5.88 0 0 1 1.212 3.6 5.96 5.96 0 0 1-2.67 4.973l4.428 2.559z" data-name="Path 58"/><path fill="#903332" d="M72.931 14.764h-26.15l12.49 7.212a5.957 5.957 0 0 1 10.684-3.248v.008l2.971-1.361z" data-name="Path 59"/><path fill="#9a3333" d="M7.625 35.55.387 46.767l7.109 14.7 8.176-14.989v-.508z" data-name="Path 60"/><path fill="#933534" d="M15.835 23.306v6.672h.078v-6.561z" data-name="Path 61"/><path fill="#c09f97" d="M15.453 78.745v.04q-.554 0-1.106-.039c.6.081 1.053.109 1.316.121v-.121h-.21" data-name="Path 62"/><path fill="#9d3433" d="M12.81 78.479c.572.124 1.092.21 1.536.267q.547.037 1.106.037v-.041a15 15 0 0 1-2.642-.264" data-name="Path 63"/><path fill="#9d3433" d="M7.495 61.467 2.32 70.951a15.21 15.21 0 0 0 10.493 7.524 15 15 0 0 0 2.639.27h.21v-.392z" data-name="Path 64"/><path fill="#903332" d="m15.674 46.475-8.179 14.99 8.165 16.887c0-3.08.006-19.1.014-31.879" data-name="Path 65"/><path fill="#bb938a" d="M1.451.005C1.101.031.795.128.42.16.488.16.555.152.626.15.9.113 1.183.033 1.452.005" data-name="Path 66"/><path fill="#9a3333" d="m.623.148-.2.012H.407L.266.21A1.4 1.4 0 0 1 .519.16l.1-.013" data-name="Path 67"/><path fill="#9a3333" d="M1.65 0h-.2C1.181.028.9.105.626.144L.52.157a1.4 1.4 0 0 0-.253.05L.04.286.014.299.002.342l8.3 12.04 4.257-6.935A14.2 14.2 0 0 0 3.752.159C3.534.124 3.313.098 3.09.07a14 14 0 0 0-1.442-.076m14.263 14.317h-.078v.35h.078z" data-name="Path 68"/><path fill="#933534" d="M15.913 14.667h-.078v8.165l.078-.119z" data-name="Path 69"/><path fill="#893332" d="m15.913 22.711-.078.12v.475l.078.11z" data-name="Path 70"/><path fill="#9d3433" d="m8.305 12.387-8.221 13.4 7.542 9.767 8.055-12.476z" data-name="Path 71"/><path fill="#903332" d="m15.678 23.076-8.05 12.472 8.046 10.418c0-8.421.009-15.323.013-15.99h.149v-6.674Z" data-name="Path 72"/><path fill="#903332" d="m12.562 5.453-4.254 6.935 7.374 10.689.159-.245v-8.514h-.149a14.37 14.37 0 0 0-3.129-8.865" data-name="Path 73"/><path fill="#873232" d="m15.835 22.831-.159.246.159.229z" data-name="Path 74"/></g></svg>